# xmcd
#
# Track frame offsets:
#	150
#	12612
#	25326
#	36615
#	44657
#	53881
#	63701
#	74209
#	82827
#	95468
#	105661
#	117369
#	128253
#	136593
#	146798
#	159580
#	170549
#	182177
#	190478
#	199168
#	209268
#	220523
#	231578
#	243730
#	253630
#	263561
#	273825
#
# Disc length: 3789 seconds
#
# Revision: 1
# Processed by: cddbd v1.5.2PL0 Copyright (c) Steve Scherf et al.
# Submitted via: audiograbber 1.83.01
#
DISCID=9f0ecb1b
DTITLE=Johnny Cash - Walk The Line - Best Of
DYEAR=2006
DGENRE=Country
TTITLE0=I Walk the Line
TTITLE1=Folsom Prison Blues
TTITLE2=I Love You Because
TTITLE3=Hey Good Lookin'
TTITLE4=Two Timin' Woman
TTITLE5=Why Me Lord
TTITLE6=There You Go
TTITLE7=Country Boy
TTITLE8=Next In Line
TTITLE9=Get Rhythm
TTITLE10=Big River
TTITLE11=Train of Love
TTITLE12=Sugartime
TTITLE13=Ballad of Teenage Queen
TTITLE14=Ring of Fire
TTITLE15=Cold Cold Heart
TTITLE16=Thanks a Lot
TTITLE17=Guess Things Happen That Way
TTITLE18=I Forgot to Remember to Forget
TTITLE19=Hey Porter
TTITLE20=I Just Thought You'd Like to Know
TTITLE21=The Ways of a Woman in Love
TTITLE22=Port of Lonely Hearts
TTITLE23=Just About Time
TTITLE24=Rock Island Line
TTITLE25=I Could Never Be Ashamed of You
TTITLE26=Straight A's In Love
EXTD=
EXTT0=
EXTT1=
EXTT2=
EXTT3=
EXTT4=
EXTT5=
EXTT6=
EXTT7=
EXTT8=
EXTT9=
EXTT10=
EXTT11=
EXTT12=
EXTT13=
EXTT14=
EXTT15=
EXTT16=
EXTT17=
EXTT18=
EXTT19=
EXTT20=
EXTT21=
EXTT22=
EXTT23=
EXTT24=
EXTT25=
EXTT26=
PLAYORDER=
